<svg width="433" height="135" viewBox="0 0 433 135" fill="none" xmlns="http://www.w3.org/2000/svg">
<g clip-path="url(#clip0_159_120)">
<path opacity="0.4" d="M433 0.349007C421.564 16.4687 406.712 28.5749 390.878 35.555C386.95 37.2782 382.961 38.7397 378.931 39.983C346.302 49.9951 310.563 44.5637 276.133 36.0567C252.014 30.1018 227.854 22.6854 203.693 18.1483C189.128 15.4217 174.562 13.7421 160.017 14.0693C133.77 14.6801 108.26 22.3582 85.0205 35.9258C49.6702 56.539 11.1559 88.7215 -8.38086 132.5L-0.000214577 0.349007H433Z" fill="#134392"/>
<path opacity="0.4" d="M433 0.567139V45.0218C429.113 45.6762 425.226 46.1343 421.319 46.3524C405.178 47.2685 388.915 44.8473 372.774 40.1794C352.112 34.2026 331.655 24.5613 311.872 13.5022C304.467 9.35774 297.123 5.01697 289.799 0.567139H433Z" fill="#134392"/>
<path opacity="0.4" d="M238.942 -0.218132C227.608 9.07416 215.845 16.905 203.714 23.1653C201.914 24.1032 200.093 24.9976 198.273 25.8701C161.981 42.9932 123.644 46.7014 85.0412 46.5487C69.7186 46.4833 54.3551 45.8071 39.0531 45.1309C36.3936 45 33.7341 44.8909 31.0747 44.7819C20.7028 44.2802 10.3514 43.8221 0 43.364V-0.218132H238.942Z" fill="#134392"/>
<path opacity="0.4" d="M73.5032 0.567139C57.7511 8.85604 43.1854 20.1115 31.0542 34.7916C24.5488 42.666 18.7594 51.4784 13.8496 61.3815C8.08065 73.0078 3.72324 85.7247 0 98.8778V0.567139H73.5032Z" fill="#134392"/>
</g>
<defs>
<clipPath id="clip0_159_120">
<rect width="433" height="135" rx="19" fill="white"/>
</clipPath>
</defs>
</svg>
