<svg width="134" height="39" viewBox="0 0 134 39" fill="none" xmlns="http://www.w3.org/2000/svg">
<g clip-path="url(#clip0_16_374)">
<path d="M2.46211 8.50376H0L10.8623 19.5L21.7245 8.50376H19.2624C14.6278 8.50376 10.8623 4.69987 10.8623 0C10.8623 4.69987 7.10472 8.50376 2.46211 8.50376Z" fill="white"/>
<path d="M19.2624 30.4962H21.7245L10.8623 19.5L0 30.4962H2.46211C7.10472 30.4962 10.8623 34.3083 10.8623 39C10.8623 34.3083 14.6198 30.4962 19.2624 30.4962Z" fill="white"/>
<path d="M48.8882 25.9185H61.5608L60.2493 24.5909C59.9275 24.265 59.493 24.0858 59.0424 24.0858H47.0778V20.4204H61.5689L60.2574 19.0927C59.9355 18.7669 59.501 18.5877 59.0505 18.5877H47.0778V14.9223H61.5689L60.2574 13.5946C59.9355 13.2688 59.501 13.0896 59.0505 13.0896H48.8882C46.8847 13.0896 45.2675 14.735 45.2675 16.755V18.5877V20.4204V22.2531C45.2675 24.2732 46.8847 25.9185 48.8882 25.9185Z" fill="white"/>
<path d="M113.37 20.4204C113.82 20.4204 114.255 20.2412 114.577 19.9154L115.888 18.5877H101.405V14.9223H113.37C113.82 14.9223 114.255 14.7431 114.577 14.4173L115.888 13.0896H103.216C101.212 13.0896 99.5948 14.7268 99.5948 16.755V18.5877V20.4204V22.2531C99.5948 24.2813 101.22 25.9185 103.216 25.9185H113.37C113.82 25.9185 114.255 25.7393 114.577 25.4135L115.888 24.0858H101.405V20.4204H113.37Z" fill="white"/>
<path d="M124.948 17.4637V25.9104L126.26 24.5827C126.581 24.2569 126.758 23.817 126.758 23.3609V14.9142L125.447 16.2419C125.125 16.5677 124.948 17.0075 124.948 17.4637Z" fill="white"/>
<path d="M117.699 13.0815L119.01 14.4091C119.332 14.735 119.766 14.9142 120.217 14.9142H126.75H131.474C131.924 14.9142 132.367 14.735 132.68 14.4091L133.992 13.0815H117.699Z" fill="white"/>
<path d="M71.5219 13.0815C68.0219 13.0815 65.1816 15.9568 65.1816 19.5C65.1816 23.0432 68.0219 25.9185 71.5219 25.9185C75.022 25.9185 77.8623 23.0432 77.8623 19.5C77.8623 15.9568 75.022 13.0815 71.5219 13.0815ZM71.5219 24.0858C69.0196 24.0858 66.992 22.0332 66.992 19.5C66.992 16.9668 69.0196 14.9142 71.5219 14.9142C74.0243 14.9142 76.0519 16.9668 76.0519 19.5C76.0519 22.0332 74.0243 24.0858 71.5219 24.0858Z" fill="white"/>
<path d="M94.6626 14.4092C94.3407 14.735 94.1637 15.1748 94.1637 15.631V23.3202V23.3935L81.4911 11.2487V25.9104L82.8026 24.5827C83.1244 24.2569 83.3014 23.817 83.3014 23.3609V15.6717L95.9741 27.7431V13.0815L94.6626 14.4092Z" fill="white"/>
<path d="M41.6467 16.8609C41.6467 14.8327 40.0214 13.1955 38.026 13.1955H25.3453L26.6568 14.5232C26.9786 14.849 27.4131 15.0282 27.8637 15.0282H39.8283V18.6936H35.1454H32.5868H28.966L30.2775 20.0213C30.5994 20.3471 31.0339 20.5263 31.4845 20.5263H34.3972L41.6387 27.8571V25.9837C41.6387 25.5276 41.4616 25.0877 41.1398 24.7619L36.9558 20.5263H38.0179C40.0214 20.5263 41.6467 18.8891 41.6467 16.8609Z" fill="white"/>
</g>
<defs>
<clipPath id="clip0_16_374">
<rect width="134" height="39" fill="white"/>
</clipPath>
</defs>
</svg>
