<svg width="122" height="97" viewBox="0 0 122 97" fill="none" xmlns="http://www.w3.org/2000/svg">
<circle cx="75" cy="47" r="47" fill="#5BD075"/>
<path d="M98.7805 51.3338C96.5654 55.5188 93.2715 59.0738 89.4238 61.7189C83.6847 65.6607 77.0178 67.6206 70.1999 68.7773C61.3251 58.4033 53.9678 46.5137 54.2627 32.3791C54.3058 30.4856 54.4641 28.5861 54.9387 26.7515C55.0538 26.319 56.1829 23.1633 56.9812 21.9071C57.3911 21.8681 57.8011 21.8828 58.2182 21.9535C59.1244 22.0943 60.009 22.487 60.7642 23.0204C62.0012 23.8987 62.9505 25.216 63.7128 26.5268C65.7481 30.0479 66.5249 34.1342 67.4742 38.0576C68.7471 43.2984 70.0129 48.5399 71.2786 53.7807C71.5951 55.0796 76.6869 51.546 77.0681 50.9124C80.2254 45.6215 83.8142 40.6076 87.9135 36.041C89.5029 34.2697 91.5886 31.1192 94.1201 31.089C96.7092 31.0581 98.9818 33.0142 100.233 35.2047C103.024 40.1125 101.254 46.667 98.7805 51.3338ZM57.5781 21.409C57.4486 21.4842 57.312 21.5601 57.1754 21.6352C57.3336 21.4415 57.4774 21.3494 57.5781 21.409ZM100.909 27.4065C94.94 25.8821 88.8053 31.2784 84.9792 35.2799C81.8004 38.6013 78.8661 42.1563 76.1835 45.9C75.3565 42.4599 74.5222 39.0198 73.6879 35.5797C72.7961 31.8796 72.0914 28.0468 70.4804 24.5817C69.3081 22.053 67.5605 19.4772 64.8995 18.4449C61.9868 17.3169 58.7216 18.512 56.1757 20.0394C41.9717 28.5677 49.3362 50.4636 56.1685 61.5052C57.9737 64.4303 59.9946 67.1932 62.145 69.853C60.6994 70.0004 59.2538 70.1404 57.8227 70.2804C46.9269 71.3119 35.9737 72.1002 25.5886 75.8801C15.5559 79.5272 5.6383 85.8192 0.165271 95.4343C-0.561109 96.709 1.3088 96.1343 1.86976 95.9279C3.12115 95.4712 5.06295 94.4691 5.77494 93.2165C11.5428 83.0931 21.928 78.6355 32.7518 76.5503C43.2663 74.5317 54.0325 74.4211 64.583 72.756C68.0711 76.7861 71.8109 80.5955 75.5291 84.3825C76.7661 85.635 82.1096 81.4797 81.4911 80.8534C78.4705 77.781 75.3349 74.5685 72.3215 71.194C72.602 71.1203 72.8825 71.0614 73.1629 70.9877C83.3538 68.2616 93.6023 62.8683 100.586 54.6368C103.987 50.625 106.677 45.6679 107.432 40.3497C108.159 35.2268 106.454 28.8234 100.909 27.4065Z" fill="white"/>
</svg>
