<?xml version="1.0" encoding="UTF-8"?>
<svg id="Layer_1" data-name="Layer 1" xmlns="http://www.w3.org/2000/svg" version="1.1" viewBox="0 0 26 26">
  <defs>
    <style>
      .cls-1 {
        fill: #fff;
        stroke-width: 0px;
      }
    </style>
  </defs>
  <path class="cls-1" d="M7.5,0C3.4,0,0,3.4,0,7.5v10.9C0,22.6,3.4,26,7.5,26h10.9c4.2,0,7.5-3.4,7.5-7.5V7.5C26,3.4,22.6,0,18.5,0H7.5ZM7.5,2h10.9c3.1,0,5.5,2.5,5.5,5.5v10.9c0,3.1-2.5,5.5-5.5,5.5H7.5c-3.1,0-5.5-2.5-5.5-5.5V7.5c0-3.1,2.5-5.5,5.5-5.5h0ZM20.5,4c-.8,0-1.5.7-1.5,1.5s.7,1.5,1.5,1.5,1.5-.7,1.5-1.5-.7-1.5-1.5-1.5ZM13,6c-3.9,0-7,3.1-7,7s3.1,7,7,7,7-3.1,7-7-3.1-7-7-7ZM13,8c2.8,0,5,2.2,5,5s-2.2,5-5,5-5-2.2-5-5,2.2-5,5-5Z"/>
</svg>