<?xml version="1.0" encoding="UTF-8"?>
<svg id="icons" xmlns="http://www.w3.org/2000/svg" version="1.1" viewBox="0 0 26 26">
  <defs>
    <style>
      .cls-1 {
        fill: #fff;
        stroke-width: 0px;
      }
    </style>
  </defs>
  <path class="cls-1" d="M21.5,5.6c-.2,0-.3-.2-.5-.3-.5-.3-.9-.7-1.3-1.1-1-1.1-1.3-2.3-1.5-3.1h0c-.1-.7,0-1.1,0-1.1h-4.5v17.3c0,.2,0,.5,0,.7,0,0,0,0,0,0,0,0,0,0,0,0h0c0,1.3-.8,2.4-1.9,3-.6.3-1.2.5-1.8.5-2.1,0-3.8-1.7-3.8-3.8s1.7-3.8,3.8-3.8c.4,0,.8,0,1.2.2v-4.5c-2.3-.3-4.6.4-6.4,1.9-.8.7-1.4,1.5-1.9,2.4-.2.3-.9,1.6-1,3.8,0,1.2.3,2.4.5,3h0c.1.3.5,1.3,1.2,2.2.6.7,1.2,1.3,1.9,1.8h0s0,0,0,0c2.2,1.5,4.6,1.4,4.6,1.4.4,0,1.8,0,3.4-.7,1.8-.8,2.7-2.1,2.7-2.1.6-.7,1.1-1.6,1.5-2.5.4-1.1.5-2.3.5-2.8v-9.2c0,0,.8.5.8.5,0,0,1,.7,2.7,1.1,1.2.3,2.7.4,2.7.4v-4.4c-.5,0-1.7-.1-2.8-.7Z"/>
</svg>