<?xml version="1.0" encoding="UTF-8"?>
<svg id="Layer_1" data-name="Layer 1" xmlns="http://www.w3.org/2000/svg" version="1.1" viewBox="0 0 26 26">
  <defs>
    <style>
      .cls-1 {
        fill: #fff;
        stroke-width: 0px;
      }
    </style>
  </defs>
  <path class="cls-1" d="M25.3,6.7c-.2-1.3-1.4-2.3-2.7-2.6-2-.4-5.7-.7-9.7-.7s-7.7.3-9.7.7c-1.3.3-2.5,1.2-2.7,2.6-.2,1.5-.5,3.6-.5,6.3s.2,4.8.5,6.3c.2,1.3,1.4,2.3,2.7,2.6,2.1.4,5.7.7,9.7.7s7.6-.3,9.7-.7c1.3-.3,2.5-1.2,2.7-2.6.2-1.5.5-3.7.6-6.3-.1-2.7-.4-4.8-.7-6.3ZM9.7,17.2v-8.4l7.4,4.2-7.4,4.2Z"/>
</svg>