<?xml version="1.0" standalone="no"?>
<!DOCTYPE svg PUBLIC "-//W3C//DTD SVG 20010904//EN"
 "http://www.w3.org/TR/2001/REC-SVG-20010904/DTD/svg10.dtd">
<svg version="1.0" xmlns="http://www.w3.org/2000/svg"
 width="400.000000pt" height="400.000000pt" viewBox="0 0 400.000000 400.000000"
 preserveAspectRatio="xMidYMid meet">
<metadata>
Created by potrace 1.14, written by Peter Selinger 2001-2017
</metadata>
<g transform="translate(0.000000,400.000000) scale(0.100000,-0.100000)"
fill="#000000" stroke="none">
<path d="M1678 3357 c-540 -548 -977 -990 -1270 -1285 -155 -155 -279 -284
-277 -286 2 -2 137 -6 299 -9 162 -2 305 -7 316 -10 12 -3 37 -8 55 -11 49 -8
78 -14 99 -21 10 -3 27 -8 37 -10 40 -8 173 -60 248 -97 266 -131 493 -351
637 -618 81 -150 150 -370 164 -526 4 -41 10 -71 14 -69 5 3 7 12 6 21 -1 9 1
40 6 68 5 28 11 69 14 91 21 137 116 372 209 517 147 227 360 415 599 527 73
34 185 78 220 86 88 20 156 34 186 40 19 4 161 9 315 11 154 3 288 6 298 7 19
2 16 5 -1083 1117 -338 342 -650 657 -693 701 -44 43 -80 79 -80 79 -1 0 -145
-145 -319 -323z"/>
</g>
</svg>
